# xmcd
#
# Track frame offsets:
#	150
#	15625
#	32120
#	45712
#	62340
#	77425
#	92557
#	109892
#	127662
#	144335
#	166487
#	184982
#	198760
#	215915
#	227837
#
# Disc length: 3230 seconds
#
# Revision: 1
# Processed by: cddbd v1.5.1PL2 Copyright (c) Steve Scherf et al.
# Submitted via: audiograbber 1.83.01
#
DISCID=c20c9c0f
DTITLE=Music Maestro Country Classics Col 4 - Mm6126
DYEAR=1900
DGENRE=Karaoke
TTITLE0=Lefty Frizzell - Always Late With Your Kisses
TTITLE1=Janie Fricke - Tell Me A Lie
TTITLE2=Merle Haggard - Let's Chase Each Other Around The Room
TTITLE3=Gene Watson - Love In The Hot Afternoon
TTITLE4=Marty Robbins - Devil Woman
TTITLE5=Hank Williams - Hey Good Lookin'
TTITLE6=Kenny Rogers - Gambler
TTITLE7=Kathy Mattea - Life As We Knew It
TTITLE8=Ray Price - For The Good Times
TTITLE9=Marty Robbins - El Paso
TTITLE10=Shelby Lynne - Things Are Tough All Over
TTITLE11=Lefty Frizzell - Mom And Dad's Waltz
TTITLE12=Joe South - Don't It Make You Want To Go Home
TTITLE13=Faron Young - If You Ain't Lovin'
TTITLE14=Janie Fricke - I'll Need Someone To Hold Me When I Cry
EXTD=
EXTT0=
EXTT1=
EXTT2=
EXTT3=
EXTT4=
EXTT5=
EXTT6=
EXTT7=
EXTT8=
EXTT9=
EXTT10=
EXTT11=
EXTT12=
EXTT13=
EXTT14=
PLAYORDER=
